[CENTER][B][FONT=Georgia][SIZE=6][COLOR=Green][COLOR="#708090"]The Expendables [2010][/COLOR][/COLOR][COLOR="Indigo"] BluRay.1080p.x264.AC3[HinDi-Eng]-[SnowDoN-IcTv][/COLOR][/SIZE][/FONT][/B]

[IMG]http://img63.imageshack.us/img63/1050/hddesirockers.png[/IMG]
[IMG]http://img156.imageshack.us/img156/5382/roadsignphp.png[/IMG]

[code]
    _________                    ________          _______  
   /   _____/ ____   ______  _  _\______ \   ____  \      \  
   \_____  \ /    \ /  _ \ \/ \/ /|    |  \ /  _ \ /   |   \
   /        \   |  (  <_> )     / |    `   (  <_> )    |    \
  /_______  /___|  /\____/ \/\_/ /_______  /\____/\____|__  /
          \/     \/                      \/               \/

[/code]


[IMG]http://img406.imageshack.us/img406/8042/12797front.jpg[/IMG]





[img]http://img573.imageshack.us/img573/4048/48874973695367351744q.png[/img]
[CODE]SoURcE: [B]Junkyard (My OWN)[/B]
SiZE: [B]2.1 GiB[/B]
iMDB: http://www.imdb.com/title/tt1320253/
RATiNG: 6.7/10 (71,143 votes)
RElEAsE DaTE:     13 August 2010 [b]InDiA[/b]
AUDIO: [B]Hindi, English[/B]
SubTiTles: [B]English SDH[/B]
EnCoDe Date: [B]2011.02.15[/B]
Runtime: [b]01:43:28[/b]
Taglines: [b]Choose your weapon[/b]
EnCoDeR: [b]ME[/b] ([B][i]SnowDoN[/B][/i] aka [i][B]Vickey007[/B][/i]
Sample: [B][FONT="Georgia"][COLOR="DarkGreen"] WiTh ToRReNt [/COLOR][/FONT][/B]



Director: [B]Sylvester Stallone[/B]

Genres:
[B] Action | Adventure | Thriller[/B][/CODE]


[img]http://img825.imageshack.us/img825/2697/89524873606771859129.png[/img]

[quote]Barney Ross leads the "Expendables", a band of highly skilled mercenaries including knife enthusiast Lee Christmas, martial arts expert Yin Yang, heavy weapons specialist Hale Caesar, demolitionist Toll Road and loose-cannon sniper Gunner Jensen. When the group is commissioned by the mysterious Mr. Church to assassinate the merciless dictator of a small South American island, Barney and Lee head to the remote locale to scout out their opposition. Once there, they meet with local rebel Sandra and discover the true nature of the conflict engulfing the city. When they escape the island and Sandra stays behind, Ross must choose to either walk away and save his own life - or attempt a suicidal rescue mission that might just save his soul.
[/quote]


[img]http://img130.imageshack.us/img130/5011/84434050717770922575.png[/img]
[B][U][FONT="Comic Sans MS"][COLOR="DarkRed"]Credited cast:[/COLOR][/FONT][/U][/B]
[CODE]Sylvester Stallone 	... 	Barney Ross 
 	Jason Statham 	... 	Lee Christmas 
 	Jet Li 	... 	Yin Yang 
 	Dolph Lundgren 	... 	Gunner Jensen 
 	Eric Roberts 	... 	James Munroe 
 	Randy Couture 	... 	Toll Road 
 	Steve Austin 	... 	Paine 
 	David Zayas 	... 	General Garza 
 	Giselle Itié 	... 	Sandra 
 	Charisma Carpenter 	... 	Lacy 
 	Gary Daniels 	... 	The Brit 
 	Terry Crews 	... 	Hale Caesar 
 	Mickey Rourke 	... 	Tool 
 	Hank Amos 	... 	Paul 
 	Amin Joseph 	... 	Pirate Leader
[/CODE] 







[img]http://img573.imageshack.us/img573/4048/48874973695367351744q.png[/img]
[CODE]General
Complete name                    : [b]The.Expendables.2010.BluRay.1080p.x264.AC3[HinDi-Eng]-[SnowDoN-IcTv]/The.Expendables.2010.BluRay.1080p.x264.AC3[HinDi-Eng]-[SnowDoN-IcTv].mkv[/b]
Format                           : Matroska
File size                        : 2.08 GiB
Duration                         : 1h 43mn
Overall bit rate                 : 2 883 Kbps
Movie name                       : [b]The.Expendables.2010.BluRay.1080p.x264.AC3[HinDi-Eng]-[SnowDoN-IcTv][/b]
Encoded date                     : UTC 2011-02-16 16:00:10
Writing application              : mkvmerge v4.4.0 ('Die Wiederkehr') built on Oct 31 2010 21:52:48
Writing library                  : libebml v1.0.0 + libmatroska v1.0.0

Video
ID                               : 1
Format                           : AVC
Format/Info                      : Advanced Video Codec
Format profile                   : High@L4.0
Format settings, CABAC           : Yes
Format settings, ReFrames        : 4 frames
Muxing mode                      : Container profile=Unknown@4.0
Codec ID                         : V_MPEG4/ISO/AVC
Duration                         : 1h 43mn
Bit rate                         : 2 442 Kbps
Nominal bit rate                 : 2 500 Kbps
Width                            : 1 920 pixels
Height                           : 800 pixels
Display aspect ratio             : 2.40:1
Frame rate mode                  : Variable
Frame rate                       : 23.976 fps
Resolution                       : 8 bits
Colorimetry                      : 4:2:0
Scan type                        : Progressive
Bits/(Pixel*Frame)               : 0.066
Stream size                      : 1.76 GiB (85%)
Title                            : [b]The.Expendables.2010.BluRay.1080p.x264.AC3[HinDi-Eng]-[SnowDoN-IcTv]
Writing library                  : x264 core 106 r1732 b20059a
Encoding settings                : cabac=1 / ref=3 / deblock=1:0:0 / analyse=0x3:0x113 / me=hex / subme=7 / psy=1 / psy_rd=1.00:0.00 / mixed_ref=1 / me_range=16 / chroma_me=1 / trellis=1 / 8x8dct=1 / cqm=0 / deadzone=21,11 / fast_pskip=1 / chroma_qp_offset=-2 / threads=6 / sliced_threads=0 / nr=0 / decimate=1 / interlaced=0 / constrained_intra=0 / bframes=3 / b_pyramid=2 / b_adapt=1 / b_bias=0 / direct=1 / weightb=1 / open_gop=0 / weightp=2 / keyint=250 / keyint_min=23 / scenecut=40 / intra_refresh=0 / rc_lookahead=40 / rc=2pass / mbtree=1 / bitrate=2500 / ratetol=1.0 / qcomp=0.60 / qpmin=10 / qpmax=51 / qpstep=4 / cplxblur=20.0 / qblur=0.5 / ip_ratio=1.40 / aq=1:1.00

Audio #1
ID                               : 2
Format                           : AC-3
Format/Info                      : Audio Coding 3
Codec ID                         : A_AC3
Duration                         : 1h 43mn
Bit rate mode                    : Constant
Bit rate                         : 192 Kbps
Channel(s)                       : 6 channels
Channel positions                : Front: L C R, Surround: L R, LFE
Sampling rate                    : 48.0 KHz
Video delay                      : -42ms
Stream size                      : 142 MiB (7%)
Title                            : [b][HinDi]-[SnowDoN-IcTv][/b]
Language                         : Hindi

Audio #2
ID                               : 3
Format                           : AC-3
Format/Info                      : Audio Coding 3
Codec ID                         : A_AC3
Duration                         : 1h 43mn
Bit rate mode                    : Constant
Bit rate                         : 192 Kbps
Channel(s)                       : 6 channels
Channel positions                : Front: L C R, Surround: L R, LFE
Sampling rate                    : 48.0 KHz
Video delay                      : -42ms
Stream size                      : 142 MiB (7%)
Title                            : [b][Eng]-[SnowDoN-IcTv][/b]

[/CODE]







[img]http://img825.imageshack.us/img825/839/95521316153253938506.png[/img]

[img]http://img688.imageshack.us/img688/3655/40051171.jpg[/img]
[img]http://img408.imageshack.us/img408/5889/60557589.jpg[/img]
[img]http://img822.imageshack.us/img822/334/41733420.jpg[/img]
[img]http://img408.imageshack.us/img408/5692/33787600.jpg[/img]
[img]http://img814.imageshack.us/img814/9974/11912104.jpg[/img]
[img]http://img267.imageshack.us/img267/3829/36290515.jpg[/img]








[B][U][FONT="Garamond"][SIZE=6][COLOR="Red"]Please Seed After Download[/COLOR][/SIZE][/FONT][/U][/B]




[B][SIZE=5][FONT="Comic Sans MS"]Enjoy Super Seed [COLOR="DarkRed"][FONT="Georgia"] & KEEP Seeding [/FONT][/COLOR] Guys[/FONT][/SIZE][/B][/CENTER]